<?xml version="1.0" encoding="utf-8"?>
<svg width="183px" height="200px" viewBox="0 0 183 200" version="1.1" xmlns:xlink="http://www.w3.org/1999/xlink" xmlns="http://www.w3.org/2000/svg">
  <g id="Group">
    <path d="M124.471 200L8.17877 200L8.17877 165.842Q8.17877 165.04 8.30656 164.248Q8.43436 163.456 8.68668 162.695Q8.939 161.934 9.30939 161.223Q9.67979 160.512 10.1588 159.868L95.2558 45.6136Q95.2971 45.5582 95.3344 45.5001Q95.3718 45.442 95.405 45.3814Q95.4383 45.3208 95.4672 45.2581Q95.4962 45.1954 95.5208 45.1309Q95.5454 45.0663 95.5655 45.0002Q95.5855 44.9341 95.601 44.8667Q95.6164 44.7994 95.6272 44.7312Q95.638 44.6629 95.644 44.5941Q95.65 44.5253 95.6513 44.4562Q95.6526 44.3871 95.6491 44.3181Q95.6456 44.2491 95.6373 44.1805Q95.629 44.1119 95.6161 44.0441Q95.6031 43.9762 95.5855 43.9094Q95.5678 43.8426 95.5456 43.7772Q95.5234 43.7118 95.4968 43.6481Q95.4701 43.5843 95.4391 43.5226Q95.4081 43.4608 95.3729 43.4014Q95.3377 43.3419 95.2985 43.285Q95.2593 43.2282 95.2163 43.1741Q95.1732 43.1201 95.1266 43.0691Q95.0799 43.0182 95.0298 42.9706Q94.9797 42.923 94.9265 42.879Q94.8733 42.835 94.8171 42.7947Q94.7609 42.7545 94.7021 42.7182Q94.6433 42.6819 94.5822 42.6498Q94.521 42.6177 94.4578 42.5899Q94.3946 42.562 94.3295 42.5386Q94.2645 42.5152 94.1981 42.4964Q94.1316 42.4775 94.064 42.4633Q93.9964 42.4491 93.928 42.4396Q93.8596 42.4301 93.7906 42.4253Q93.7217 42.4205 93.6526 42.4205L58.7849 42.4205L42.683 0L174.821 0L174.821 33.9797Q174.821 34.785 174.692 35.58Q174.563 36.375 174.309 37.1391Q174.055 37.9032 173.681 38.6167Q173.308 39.3303 172.825 39.9748L87.2499 154.219Q87.2084 154.274 87.1708 154.332Q87.1333 154.39 87.0999 154.451Q87.0664 154.511 87.0372 154.574Q87.0081 154.637 86.9833 154.701Q86.9585 154.766 86.9383 154.832Q86.918 154.898 86.9024 154.965Q86.8868 155.033 86.8759 155.101Q86.8649 155.169 86.8588 155.238Q86.8526 155.307 86.8512 155.376Q86.8498 155.446 86.8532 155.515Q86.8565 155.584 86.8647 155.652Q86.8728 155.721 86.8857 155.789Q86.8986 155.857 86.9161 155.924Q86.9337 155.991 86.9558 156.056Q86.9779 156.122 87.0045 156.186Q87.0311 156.25 87.0621 156.311Q87.093 156.373 87.1282 156.433Q87.1633 156.493 87.2025 156.549Q87.2417 156.607 87.2848 156.661Q87.3278 156.715 87.3745 156.766Q87.4211 156.817 87.4712 156.865Q87.5213 156.912 87.5746 156.956Q87.6279 157.001 87.6841 157.041Q87.7402 157.081 87.7991 157.118Q87.8579 157.154 87.9192 157.186Q87.9804 157.218 88.0437 157.246Q88.107 157.274 88.1721 157.298Q88.2371 157.321 88.3037 157.34Q88.3702 157.359 88.4379 157.373Q88.5056 157.387 88.5741 157.397Q88.6426 157.406 88.7116 157.411Q88.7806 157.416 88.8498 157.416L140.573 157.416L124.471 200Z" id="Path" fill="#1F4060" fill-rule="evenodd" stroke="none" />
    <path d="M25.6495 27.768C25.6495 27.768 20.1609 22.4374 20.1609 22.4374C20.1609 22.4374 20.2257 22.3737 20.2257 22.3737C23.9856 18.2536 26.6651 13.5176 28.2425 8.5056C28.2425 8.5056 34.5739 8.5056 34.5739 8.5056L34.5739 4.24749L19.4478 4.24749L19.4478 0.999023Q19.4478 0.900628 19.4286 0.804124Q19.4094 0.707619 19.3718 0.616714Q19.3341 0.525808 19.2794 0.443996Q19.2248 0.362183 19.1552 0.292607Q19.0856 0.223031 19.0038 0.168366Q18.922 0.1137 18.8311 0.0760461Q18.7402 0.0383919 18.6437 0.019196Q18.5472 0 18.4488 0L16.1251 0Q16.0267 0 15.9302 0.019196Q15.8337 0.0383919 15.7428 0.0760461Q15.6519 0.1137 15.5701 0.168366Q15.4883 0.223031 15.4187 0.292607Q15.3491 0.362183 15.2944 0.443996Q15.2398 0.525808 15.2021 0.616714Q15.1645 0.707619 15.1453 0.804124Q15.1261 0.900628 15.1261 0.999023L15.1261 4.24749L0 4.24749C0 4.24749 0 8.47374 0 8.47374C0 8.47374 24.1369 8.47374 24.1369 8.47374C22.6783 12.5726 20.3986 16.459 17.2869 19.857C15.2773 17.6589 13.6135 15.2697 12.2953 12.7425C12.2953 12.7425 7.9736 12.7425 7.9736 12.7425C9.55104 16.2042 11.7119 19.4747 14.413 22.4268C14.413 22.4268 3.42498 33.0986 3.42498 33.0986L6.4826 36.1037L17.2869 25.4849L24.0072 32.0898L25.6495 27.768L25.6495 27.768ZM37.8152 16.99L33.4935 16.99L23.7696 42.4749L28.0913 42.4749L30.5223 36.1037L40.7864 36.1037L43.2174 42.4749L47.5391 42.4749L37.8152 16.99L37.8152 16.99ZM32.1429 31.8562L35.6543 22.6497L39.1657 31.8562L32.1429 31.8562L32.1429 31.8562Z" id="Shape" fill="#1F4060" fill-rule="evenodd" stroke="none" />
    <path d="M157.349 185.253L162.838 179.909L162.773 179.846L154.757 165.943L148.426 165.943L148.426 161.674L163.551 161.674L163.551 158.415Q163.551 158.317 163.57 158.22Q163.589 158.124 163.627 158.033Q163.665 157.942 163.719 157.86Q163.774 157.778 163.844 157.709Q163.913 157.639 163.995 157.584Q164.077 157.53 164.168 157.492Q164.259 157.454 164.355 157.435Q164.452 157.416 164.55 157.416L166.873 157.416Q166.972 157.416 167.068 157.435Q167.165 157.454 167.256 157.492Q167.347 157.53 167.428 157.584Q167.51 157.639 167.58 157.709Q167.649 157.778 167.704 157.86Q167.759 157.942 167.796 158.033Q167.834 158.124 167.853 158.22Q167.872 158.317 167.872 158.415L167.872 161.674L182.998 161.674L182.998 165.911L158.862 165.911L165.712 177.323L170.703 170.19L175.025 170.19L168.585 179.899L179.573 190.597L176.516 193.61L165.712 182.965L158.992 189.586L157.349 185.253L157.349 185.253ZM145.184 174.448L149.506 174.448L159.229 199.997L154.908 199.997L152.477 193.61L142.213 193.61L139.782 199.997L135.461 199.997L145.184 174.448L145.184 174.448ZM150.856 189.352L147.345 180.122L143.834 189.352L150.856 189.352L150.856 189.352Z" id="Shape" fill="#1F4060" fill-rule="evenodd" stroke="none" />
  </g>
</svg>